M48
; DRILL file {KiCad 9.0.6} date 2026-06-27T11:58:21-0700
; FORMAT={-:-/ absolute / metric / decimal}
; #@! TF.CreationDate,2026-06-27T11:58:21-07:00
; #@! TF.GenerationSoftware,Kicad,Pcbnew,9.0.6
; #@! TF.FileFunction,Plated,1,2,PTH
FMAT,2
METRIC
; #@! TA.AperFunction,Plated,PTH,ViaDrill
T1C0.300
; #@! TA.AperFunction,Plated,PTH,ComponentDrill
T2C0.750
; #@! TA.AperFunction,Plated,PTH,ComponentDrill
T3C0.800
; #@! TA.AperFunction,Plated,PTH,ComponentDrill
T4C0.900
; #@! TA.AperFunction,Plated,PTH,ComponentDrill
T5C1.000
; #@! TA.AperFunction,Plated,PTH,ComponentDrill
T6C1.050
; #@! TA.AperFunction,Plated,PTH,ComponentDrill
T7C1.100
; #@! TA.AperFunction,Plated,PTH,ComponentDrill
T8C1.200
; #@! TA.AperFunction,Plated,PTH,ComponentDrill
T9C1.300
%
G90
G05
T1
X81.0Y-99.0
X85.75Y-100.25
X86.25Y-109.75
X87.75Y-76.5
X91.0Y-81.5
X91.1Y-101.25
X95.0Y-95.75
X96.0Y-76.0
X99.5Y-93.0
X99.5Y-100.0
X102.25Y-124.5
X102.5Y-70.5
X102.75Y-72.5
X103.5Y-101.25
X104.5Y-127.0
X110.25Y-95.0
X110.652Y-93.25
X111.0Y-97.5
X111.613Y-128.099
X112.5Y-93.0
X112.65Y-122.0
X114.0Y-132.75
X116.5Y-79.75
X117.15Y-77.5
X117.5Y-127.0
X117.75Y-72.75
X117.75Y-92.0
X118.0Y-98.25
X118.25Y-70.0
X125.25Y-132.25
X125.25Y-134.0
X131.7Y-128.75
T2
X83.75Y-119.25
X85.75Y-119.25
X93.5Y-119.25
X95.5Y-119.25
X102.25Y-119.25
X104.25Y-119.25
X105.98Y-98.61
X107.25Y-98.61
X108.52Y-98.61
X113.48Y-95.36
X113.5Y-88.75
X114.18Y-141.37
X114.75Y-95.36
X114.77Y-88.75
X115.45Y-141.37
X116.02Y-95.36
X116.04Y-88.75
X116.72Y-141.37
X120.69Y-129.79
X120.69Y-135.58
X120.69Y-141.37
X121.96Y-129.79
X121.96Y-135.58
X121.96Y-141.37
X123.23Y-129.79
X123.23Y-135.58
X123.23Y-141.37
X127.2Y-129.79
X127.2Y-135.58
X128.47Y-129.79
X128.47Y-135.58
X129.74Y-129.79
X129.74Y-135.58
T3
X82.38Y-132.75
X82.4Y-127.75
X82.9Y-101.0
X84.153Y-93.25
X84.403Y-84.0
X84.653Y-74.5
X87.653Y-93.25
X87.903Y-84.0
X88.153Y-74.5
X90.0Y-132.75
X91.92Y-96.5
X93.0Y-82.92
X93.0Y-93.08
X93.13Y-132.75
X93.5Y-68.42
X93.5Y-78.58
X95.1Y-127.75
X95.6Y-101.0
X96.65Y-87.75
X96.65Y-92.25
X98.5Y-68.42
X98.5Y-78.58
X100.75Y-132.75
X102.08Y-96.5
X102.65Y-77.0
X102.65Y-82.25
X104.19Y-132.75
X105.67Y-72.25
X109.35Y-87.75
X109.35Y-92.25
X109.5Y-115.9
X109.5Y-128.6
X109.75Y-102.67
X109.75Y-112.83
X111.81Y-132.75
X113.25Y-118.67
X113.25Y-128.83
X115.35Y-77.0
X115.35Y-82.25
X115.83Y-72.25
X116.75Y-124.4
X116.75Y-137.1
X117.4Y-121.0
X120.17Y-97.5
X120.17Y-124.75
X130.1Y-121.0
X130.33Y-97.5
X130.33Y-124.75
T4
X82.46Y-139.25
X85.0Y-139.25
X93.25Y-139.25
X95.79Y-139.25
X103.975Y-139.25
X106.515Y-139.25
T5
X122.775Y-63.5
X122.775Y-66.04
X126.525Y-63.5
X126.525Y-66.04
X130.275Y-63.5
X130.275Y-66.04
T6
X115.0Y-104.5
X115.0Y-112.0
X121.72Y-104.5
X121.72Y-112.0
X128.5Y-104.5
X128.5Y-112.0
T7
X83.5Y-105.92
X83.5Y-108.46
X83.5Y-111.0
X93.3Y-105.96
X93.3Y-108.5
X93.3Y-111.04
X103.5Y-106.0
X103.5Y-108.54
X103.5Y-111.08
X120.17Y-72.75
X120.17Y-77.0
X120.17Y-81.25
X120.17Y-85.5
X120.17Y-89.75
X120.17Y-94.0
X130.33Y-72.75
X130.33Y-77.0
X130.33Y-81.25
X130.33Y-85.5
X130.33Y-89.75
X130.33Y-94.0
T8
X71.426Y-104.75
X71.426Y-118.8
X71.426Y-132.85
X71.926Y-91.0
X72.102Y-77.75
X72.426Y-64.5
X76.426Y-104.75
X76.426Y-118.8
X76.426Y-132.85
X76.926Y-91.0
X77.102Y-77.75
X77.426Y-64.5
T9
X92.405Y-58.24
X92.405Y-63.32
X111.922Y-58.25
X111.922Y-63.33
M30
